<?xml version="1.0" encoding="UTF-8"?><svg id="Layer_2" xmlns="http://www.w3.org/2000/svg" viewBox="0 0 226.53 226.53"><g id="Layer_1-2"><g><path d="M113.27,225.47c-12.41,0-23.17-4.85-33.57-9.54-2.62-1.18-5.1-2.3-7.58-3.33-2.52-1.04-5.17-2.06-7.74-3.05-10.79-4.15-21.95-8.44-30.46-16.95-8.51-8.51-12.8-19.67-16.94-30.46-.99-2.56-2.01-5.22-3.05-7.74-1.03-2.48-2.15-4.96-3.33-7.58-4.69-10.4-9.54-21.16-9.54-33.57s4.85-23.17,9.54-33.57c1.18-2.62,2.3-5.1,3.33-7.58,1.04-2.52,2.06-5.17,3.05-7.74,4.15-10.79,8.44-21.95,16.95-30.46,8.51-8.51,19.67-12.8,30.46-16.95,2.57-.99,5.22-2.01,7.73-3.05,2.48-1.03,4.96-2.15,7.58-3.33C90.1,5.91,100.85,1.06,113.27,1.06s23.17,4.85,33.57,9.54c2.62,1.18,5.1,2.3,7.58,3.33,2.52,1.04,5.17,2.06,7.74,3.05,10.79,4.15,21.95,8.44,30.46,16.95,8.51,8.51,12.8,19.67,16.94,30.46,.99,2.57,2.01,5.22,3.05,7.74,1.03,2.48,2.15,4.96,3.33,7.58,4.69,10.4,9.54,21.15,9.54,33.57s-4.85,23.17-9.54,33.57c-1.18,2.62-2.3,5.1-3.33,7.58-1.04,2.52-2.06,5.17-3.05,7.74-4.15,10.79-8.44,21.95-16.95,30.46-8.51,8.51-19.67,12.8-30.46,16.94-2.57,.99-5.22,2.01-7.74,3.05-2.48,1.03-4.96,2.15-7.58,3.33-10.4,4.69-21.15,9.54-33.56,9.54Zm0-212.64c-9.88,0-19.46,4.32-28.72,8.5-2.59,1.17-5.26,2.37-7.91,3.47-2.66,1.1-5.39,2.15-8.02,3.16-10.09,3.88-19.61,7.54-26.36,14.28-6.74,6.74-10.4,16.27-14.28,26.36-1.01,2.64-2.06,5.36-3.16,8.02-1.1,2.65-2.31,5.33-3.47,7.91-4.18,9.26-8.5,18.84-8.5,28.72s4.32,19.46,8.5,28.72c1.17,2.59,2.37,5.26,3.47,7.91,1.1,2.66,2.15,5.39,3.16,8.02,3.88,10.09,7.54,19.61,14.28,26.35,6.74,6.74,16.27,10.4,26.36,14.28,2.64,1.01,5.36,2.06,8.02,3.16,2.65,1.1,5.33,2.31,7.91,3.47,9.26,4.18,18.84,8.5,28.72,8.5s19.46-4.32,28.72-8.5c2.59-1.17,5.26-2.37,7.92-3.47,2.66-1.1,5.39-2.15,8.02-3.16,10.09-3.88,19.61-7.54,26.35-14.28,6.74-6.74,10.4-16.27,14.28-26.36,1.01-2.64,2.06-5.36,3.16-8.02,1.1-2.65,2.31-5.32,3.47-7.91,4.18-9.27,8.5-18.85,8.5-28.72s-4.32-19.46-8.5-28.72c-1.17-2.59-2.37-5.26-3.47-7.91-1.1-2.66-2.15-5.39-3.16-8.02-3.88-10.09-7.54-19.61-14.28-26.36-6.74-6.74-16.27-10.4-26.35-14.28-2.64-1.01-5.36-2.06-8.02-3.16-2.65-1.1-5.32-2.31-7.91-3.47-9.26-4.18-18.85-8.5-28.72-8.5Z" fill="#7d35f0"/><path d="M113.27,226.53c-12.64,0-23.99-5.12-34-9.63-2.62-1.18-5.08-2.29-7.55-3.32-2.5-1.04-5.03-2.01-7.71-3.04-10.89-4.19-22.16-8.52-30.83-17.18-8.67-8.67-13-19.93-17.18-30.83-1.03-2.68-2-5.21-3.04-7.71-1.02-2.47-2.14-4.94-3.32-7.55C5.12,137.25,0,125.9,0,113.26s5.12-23.99,9.63-34c1.18-2.61,2.29-5.08,3.32-7.55,1.04-2.5,2.01-5.03,3.04-7.71,4.19-10.89,8.52-22.16,17.18-30.83,8.67-8.67,19.93-13,30.83-17.18,2.68-1.03,5.21-2,7.71-3.04,2.47-1.02,4.94-2.14,7.55-3.32C89.28,5.12,100.63,0,113.27,0s23.99,5.12,34,9.63c2.61,1.18,5.08,2.29,7.55,3.32,2.5,1.04,5.03,2.01,7.71,3.04,10.89,4.19,22.16,8.52,30.83,17.18,8.67,8.67,13,19.93,17.18,30.83,1.03,2.68,2,5.21,3.04,7.71,1.02,2.47,2.14,4.94,3.32,7.55,4.52,10.01,9.64,21.36,9.64,34s-5.12,23.99-9.64,34c-1.18,2.61-2.29,5.08-3.32,7.55-1.04,2.5-2.01,5.03-3.04,7.71-4.19,10.89-8.52,22.16-17.18,30.83-8.67,8.67-19.93,13-30.82,17.18-2.68,1.03-5.21,2-7.71,3.04-2.47,1.02-4.94,2.14-7.55,3.32-10.01,4.52-21.36,9.63-34,9.63Zm0-212.64c-9.65,0-18.7,4.08-28.29,8.41-2.59,1.17-5.28,2.38-7.94,3.48-2.67,1.11-5.4,2.16-8.05,3.17-9.98,3.83-19.41,7.46-25.99,14.04-6.58,6.58-10.2,16.01-14.04,25.99-1.02,2.64-2.07,5.38-3.17,8.05-1.1,2.66-2.32,5.35-3.49,7.94-4.32,9.58-8.41,18.64-8.41,28.29s4.08,18.7,8.41,28.29c1.17,2.59,2.38,5.28,3.48,7.94,1.11,2.67,2.16,5.41,3.17,8.05,3.84,9.98,7.46,19.4,14.04,25.99,6.58,6.58,16.01,10.2,25.99,14.04,2.64,1.02,5.38,2.07,8.05,3.17,2.66,1.1,5.35,2.32,7.94,3.49,9.58,4.32,18.64,8.41,28.29,8.41s18.7-4.08,28.29-8.41c2.6-1.17,5.28-2.38,7.94-3.49,2.67-1.11,5.41-2.16,8.05-3.17,9.98-3.83,19.4-7.46,25.98-14.04,6.58-6.58,10.2-16.01,14.04-25.99,1.02-2.64,2.07-5.38,3.17-8.05,1.1-2.66,2.31-5.35,3.48-7.94,4.32-9.58,8.41-18.64,8.41-28.29s-4.08-18.7-8.41-28.29c-1.17-2.59-2.38-5.28-3.49-7.94-1.11-2.67-2.16-5.41-3.17-8.05-3.84-9.98-7.46-19.41-14.04-25.99-6.58-6.58-16.01-10.2-25.99-14.04-2.64-1.02-5.38-2.07-8.05-3.17-2.66-1.1-5.35-2.31-7.94-3.48-9.58-4.32-18.64-8.41-28.29-8.41Z" fill="#7d35f0"/><path d="M113.27,188.46c-13.38,0-27.36-.93-39-7.66-12.23-7.07-19.9-19.16-26.13-29.93-6.5-11.23-12.84-23.39-12.84-37.6s6.35-26.37,12.84-37.61c6.23-10.77,13.9-22.85,26.13-29.93,11.64-6.73,25.62-7.66,39-7.66s27.36,.93,39,7.66c12.23,7.07,19.9,19.16,26.13,29.93,6.5,11.23,12.84,23.39,12.84,37.61s-6.35,26.37-12.84,37.6c-6.23,10.77-13.9,22.85-26.13,29.93-11.64,6.73-25.62,7.66-39,7.66Zm0-136.49c-13.22,0-23.73,.99-32.04,5.79-9.26,5.36-15.48,15.22-21.06,24.86-5.78,10-10.98,19.86-10.98,30.65s5.19,20.65,10.98,30.65c5.58,9.64,11.8,19.5,21.06,24.86,8.31,4.81,18.82,5.79,32.04,5.79s23.73-.99,32.04-5.79c9.27-5.36,15.49-15.22,21.06-24.86,5.78-10,10.98-19.87,10.98-30.65s-5.19-20.65-10.98-30.65c-5.58-9.64-11.8-19.5-21.06-24.86-8.31-4.81-18.82-5.79-32.04-5.79Z" fill="#7d35f0"/><circle cx="113.27" cy="113.26" r="37.27" fill="#7d35f0"/></g></g></svg>